<svg width="12" height="11" viewBox="0 0 12 11" fill="none" xmlns="http://www.w3.org/2000/svg">
<path d="M3.8125 10.8943C4.33027 10.8943 4.75 10.4466 4.75 9.89435C4.75 9.34206 4.33027 8.89435 3.8125 8.89435C3.29473 8.89435 2.875 9.34206 2.875 9.89435C2.875 10.4466 3.29473 10.8943 3.8125 10.8943Z" fill="#6F5959"/>
<path d="M9.4375 10.8943C9.95527 10.8943 10.375 10.4466 10.375 9.89435C10.375 9.34206 9.95527 8.89435 9.4375 8.89435C8.91973 8.89435 8.5 9.34206 8.5 9.89435C8.5 10.4466 8.91973 10.8943 9.4375 10.8943Z" fill="#6F5959"/>
<path d="M1 0.894409H2.25L2.625 2.89441M2.625 2.89441L3.5 7.56108H9.75L11 2.89441H2.625Z" stroke="#6F5959" stroke-linecap="round" stroke-linejoin="round"/>
</svg>
