<svg width="20" height="21" viewBox="0 0 20 21" fill="none" xmlns="http://www.w3.org/2000/svg">
<path d="M12.3999 10.5191C12.3999 11.1557 12.147 11.7661 11.6969 12.2162C11.2468 12.6663 10.6364 12.9191 9.99985 12.9191C9.36333 12.9191 8.75288 12.6663 8.3028 12.2162C7.85271 11.7661 7.59985 11.1557 7.59985 10.5191C7.59985 9.88262 7.85271 9.27217 8.3028 8.82208C8.75288 8.372 9.36333 8.11914 9.99985 8.11914C10.6364 8.11914 11.2468 8.372 11.6969 8.82208C12.147 9.27217 12.3999 9.88262 12.3999 10.5191Z" fill="#F7AFB6"/>
<path fill-rule="evenodd" clip-rule="evenodd" d="M14.7553 13.2157C15.3431 13.0502 15.8608 12.6972 16.2295 12.2104C16.5982 11.7236 16.7978 11.1296 16.7978 10.5189C16.7978 9.90819 16.5982 9.31423 16.2295 8.8274C15.8608 8.34057 15.3431 7.98756 14.7553 7.82209C14.7851 7.65675 14.8001 7.48902 14.8001 7.31889C14.8001 6.76263 14.6345 6.21896 14.3244 5.7572C14.0142 5.29545 13.5735 4.93654 13.0585 4.72626C12.5436 4.51598 11.9776 4.46385 11.4329 4.57652C10.8882 4.68919 10.3893 4.96156 10.0001 5.35889C9.58065 4.93045 9.0348 4.64795 8.44283 4.55295C7.85086 4.45796 7.24402 4.55548 6.71163 4.83117C6.17923 5.10687 5.74938 5.54617 5.48534 6.08444C5.22129 6.62271 5.137 7.23152 5.24485 7.82129C4.65667 7.98652 4.13862 8.33948 3.76963 8.82641C3.40064 9.31334 3.20093 9.90754 3.20093 10.5185C3.20093 11.1294 3.40064 11.7236 3.76963 12.2106C4.13862 12.6975 4.65667 13.0505 5.24485 13.2157C5.13677 13.8055 5.22089 14.4145 5.48485 14.9529C5.74881 15.4913 6.17866 15.9308 6.71112 16.2066C7.24357 16.4824 7.85051 16.58 8.44259 16.485C9.03467 16.39 9.58061 16.1074 10.0001 15.6789C10.4195 16.1073 10.9653 16.3898 11.5573 16.4848C12.1492 16.5798 12.7561 16.4823 13.2885 16.2066C13.8209 15.9309 14.2507 15.4916 14.5148 14.9533C14.7788 14.4151 14.8631 13.8055 14.7553 13.2157ZM13.8825 7.99809C13.862 8.05505 13.8548 8.11591 13.8612 8.17608C13.8677 8.23626 13.8878 8.29417 13.9199 8.34547C13.952 8.39676 13.9954 8.4401 14.0467 8.47222C14.098 8.50434 14.1559 8.5244 14.2161 8.53089C14.7071 8.58308 15.1615 8.8151 15.4918 9.18229C15.822 9.54947 16.0047 10.0259 16.0047 10.5197C16.0047 11.0135 15.822 11.4899 15.4918 11.8571C15.1615 12.2243 14.7071 12.4563 14.2161 12.5085C14.1559 12.515 14.098 12.535 14.0467 12.5672C13.9954 12.5993 13.952 12.6426 13.9199 12.6939C13.8878 12.7452 13.8677 12.8031 13.8612 12.8633C13.8548 12.9235 13.862 12.9843 13.8825 13.0413C13.9603 13.2584 13.9995 13.4845 14.0001 13.7197C14.0002 14.1495 13.862 14.5679 13.6057 14.913C13.3495 15.258 12.9889 15.5114 12.5774 15.6354C12.1658 15.7595 11.7253 15.7477 11.321 15.6018C10.9168 15.4558 10.5703 15.1836 10.3329 14.8253C10.2963 14.7705 10.2468 14.7256 10.1888 14.6945C10.1307 14.6635 10.0659 14.6472 10.0001 14.6472C9.93421 14.6472 9.86938 14.6635 9.81132 14.6945C9.75327 14.7256 9.70378 14.7705 9.66725 14.8253C9.39725 15.2336 8.98688 15.5287 8.51387 15.6547C8.04086 15.7808 7.53805 15.7289 7.10069 15.5091C6.66334 15.2892 6.3218 14.9166 6.14077 14.4618C5.95975 14.007 5.9518 13.5016 6.11845 13.0413C6.1389 12.9843 6.14613 12.9233 6.1396 12.8631C6.13306 12.8029 6.11293 12.7449 6.08073 12.6936C6.04852 12.6423 6.00509 12.599 5.95369 12.5669C5.9023 12.5348 5.84429 12.5149 5.78405 12.5085C5.29298 12.4563 4.83858 12.2243 4.50835 11.8571C4.17812 11.4899 3.99541 11.0135 3.99541 10.5197C3.99541 10.0259 4.17812 9.54947 4.50835 9.18229C4.83858 8.8151 5.29298 8.58308 5.78405 8.53089C5.84422 8.5244 5.90214 8.50434 5.95343 8.47222C6.00473 8.4401 6.04807 8.39676 6.08019 8.34547C6.1123 8.29417 6.13236 8.23626 6.13885 8.17608C6.14534 8.11591 6.13809 8.05505 6.11765 7.99809C5.951 7.53782 5.95895 7.03241 6.13997 6.5776C6.321 6.12279 6.66254 5.75016 7.09989 5.5303C7.53725 5.31044 8.04006 5.25861 8.51307 5.38463C8.98608 5.51065 9.39645 5.80577 9.66645 6.21409C9.70295 6.26904 9.75247 6.31411 9.81061 6.34529C9.86874 6.37646 9.93368 6.39278 9.99965 6.39278C10.0656 6.39278 10.1306 6.37646 10.1887 6.34529C10.2468 6.31411 10.2964 6.26904 10.3329 6.21409C10.6028 5.80577 11.0132 5.51065 11.4862 5.38463C11.9592 5.25861 12.462 5.31044 12.8994 5.5303C13.3368 5.75016 13.6783 6.12279 13.8593 6.5776C14.0404 7.03241 14.0483 7.53782 13.8816 7.99809" fill="#F7AFB6"/>
<path fill-rule="evenodd" clip-rule="evenodd" d="M10 19.719C15.0808 19.719 19.2 15.5998 19.2 10.519C19.2 5.43824 15.0808 1.31904 10 1.31904C4.9192 1.31904 0.8 5.43824 0.8 10.519C0.8 15.5998 4.9192 19.719 10 19.719ZM10 20.519C15.5232 20.519 20 16.0422 20 10.519C20 4.99584 15.5232 0.519043 10 0.519043C4.4768 0.519043 0 4.99584 0 10.519C0 16.0422 4.4768 20.519 10 20.519Z" fill="#F7AFB6"/>
</svg>
