<svg width="17" height="14" viewBox="0 0 17 14" fill="none" xmlns="http://www.w3.org/2000/svg">
<path d="M1.52622 13.5408C1.09115 13.5408 0.728167 13.3954 0.437278 13.1045C0.146389 12.8136 0.00062963 12.4503 0 12.0146V1.84483C0 1.40975 0.145759 1.04677 0.437278 0.755881C0.728796 0.464992 1.09146 0.319233 1.52528 0.318604H15.4747C15.9092 0.318604 16.2718 0.464363 16.5627 0.755881C16.8536 1.0474 16.9994 1.41038 17 1.84483V12.0155C17 12.45 16.8542 12.813 16.5627 13.1045C16.2712 13.396 15.9085 13.5415 15.4747 13.5408H1.52622ZM8.5 7.03927L0.944444 2.09888V12.0155C0.944444 12.1849 0.998907 12.3241 1.10783 12.433C1.21676 12.5419 1.35622 12.5964 1.52622 12.5964H15.4747C15.6441 12.5964 15.7832 12.5419 15.8922 12.433C16.0011 12.3241 16.0556 12.1846 16.0556 12.0146V2.09794L8.5 7.03927ZM8.5 5.98527L15.7647 1.26305H1.23533L8.5 5.98527ZM0.944444 2.09888V1.26305V12.0155C0.944444 12.1849 0.998907 12.3241 1.10783 12.433C1.21676 12.5419 1.35622 12.5964 1.52622 12.5964H0.944444V2.09888Z" fill="#6F5959"/>
</svg>
