<svg width="19" height="34" viewBox="0 0 19 34" fill="none" xmlns="http://www.w3.org/2000/svg">
<path d="M10.489 16.4486V19.5061" stroke="#D9A6A6" stroke-width="1.44223" stroke-linecap="round" stroke-linejoin="round"/>
<path d="M13.0327 17.5255V19.9581" stroke="#D9A6A6" stroke-width="1.44223" stroke-linecap="round" stroke-linejoin="round"/>
<path d="M15.6523 18.3384V20.7709" stroke="#D9A6A6" stroke-width="1.44223" stroke-linecap="round" stroke-linejoin="round"/>
<path d="M1.45551 22.3281C0.854579 21.631 0.931496 20.5829 1.62857 19.982C2.32565 19.3811 3.37368 19.458 3.9698 20.1551L7.08982 23.7222V10.3816C7.08982 9.43931 7.85421 8.67493 8.79646 8.67493C9.73872 8.67493 10.5031 9.43931 10.5031 10.3816V16.7466C10.7771 16.5207 11.1281 16.3812 11.5127 16.3812C12.2338 16.3812 12.8443 16.8668 13.0318 17.5254C13.3155 17.2658 13.6904 17.1024 14.1039 17.1024C14.8586 17.1024 15.4884 17.6312 15.6471 18.3379C15.9019 18.1263 16.2336 17.9965 16.5941 18.0014C17.397 18.0062 18.0508 18.7369 18.0508 19.5397V24.4914C18.0508 25.2173 17.9402 25.9336 17.7191 26.6259L16.6951 29.8469V32.3852H7.56095V30.2892L1.4507 22.3281H1.45551Z" fill="white" stroke="#D9A6A6" stroke-width="1.44223" stroke-linecap="round" stroke-linejoin="round"/>
<path d="M10.489 16.4486V19.5061" stroke="#D9A6A6" stroke-width="1.44223" stroke-linecap="round" stroke-linejoin="round"/>
<path d="M13.0327 17.5255V19.9581" stroke="#D9A6A6" stroke-width="1.44223" stroke-linecap="round" stroke-linejoin="round"/>
<path d="M15.6523 18.3384V20.7709" stroke="#D9A6A6" stroke-width="1.44223" stroke-linecap="round" stroke-linejoin="round"/>
<path d="M8.60425 1.58899V5.28591" stroke="#D9A6A6" stroke-width="1.6826" stroke-linecap="round" stroke-linejoin="round"/>
<path d="M3.12402 4.16064L5.36429 6.77589" stroke="#D9A6A6" stroke-width="1.6826" stroke-linecap="round" stroke-linejoin="round"/>
<path d="M14.0848 4.16064L11.8494 6.77589" stroke="#D9A6A6" stroke-width="1.6826" stroke-linecap="round" stroke-linejoin="round"/>
</svg>
