<?xml version="1.0" encoding="UTF-8"?>
<svg xmlns="http://www.w3.org/2000/svg" viewBox="0 0 95.7 85.27">
  <defs>
    <style>
      .cls-1 {
        fill: #a68b84;
      }

      .cls-2 {
        isolation: isolate;
      }

      .cls-3 {
        fill: #ffd8e2;
        mix-blend-mode: multiply;
      }
    </style>
  </defs>
  <g class="cls-2">
    <g id="_レイヤー_2" data-name="レイヤー 2">
      <g id="_イラスト" data-name="イラスト">
        <g>
          <g>
            <path class="cls-3" d="M54.54,45.6c.64-1.9,1.92-4.33,1.99-6.48.02-.57,0-1.14,0-1.71.01-2.56.58-5.17,1.17-7.65.49-2.08.51-3.95,1.59-5.84,1.12-1.96,2.43-3.72,3.66-5.61.94-1.45,2.22-2.49,3.33-3.83,1.09-1.32,2.46-2.2,3.51-3.59.86-1.14,2.13-2.4,3.58-2.7,1.52-.31,3.04.85,4.18,1.69,1.04.77,2.05,1.51,3.27,1.98.94.36,2.8.45,3.33,1.4.79,1.42.02,4.26-.18,5.81-.21,1.67-1.04,3.15-1.37,4.78-.17.84-.08,1.6-.48,2.39-.43.83-1.04,1.73-1.59,2.48-1.55,2.14-3.35,3.91-5.09,5.87-1.47,1.66-3.3,3.79-5.35,4.65-1.93.81-3.16,2.14-4.8,3.39-2.08,1.6-4.92,1.57-6.95,3.3-.66.56-.92.84-1.82.54-.76-.25-1.06-.7-1.98-.87Z"/>
            <path class="cls-3" d="M53.39,44.77c-1.98-.88-3.83-1.84-5.95-2.11-1.13-.14-2.32-.04-3.46-.04-2.22,0-4.4.14-6.62.16-1.9.02-3.77.34-5.66.33-1.44,0-2.38-.16-3.68-.65-3-1.11-5.92-1.96-7.97-4.58-2.38-3.04-3.76-6.14-2.56-10,.49-1.58,1.38-3.2,2.84-4.09.62-.38,1.43-.64,2.11-.95.8-.36,1.53-.91,2.33-1.25.62-.26,1.34-.32,1.88-.75.97-.77,1.4-1.96,1.8-3.08.87-2.4,2.07-4.28,3.9-6.06.71-.7,1.07-1.01,2.04-1.02,1.05-.01,2.09-.06,3.11.2,2.04.53,4.34.97,6.04,2.24.74.55,1.24,1.21,1.9,1.85.97.95,2.11,1.74,2.91,2.84,1.38,1.89,2.19,3.71,2.97,5.89.85,2.39,1.22,4.91,1.41,7.44.15,2.08.25,4.43,1.04,6.37.52,1.28.78,2.7.79,4.07,0,.69-.23,1.72-1.16,3.17Z"/>
            <path class="cls-3" d="M54.71,45.43c-2.04-2.27-3.73-3.96-4.96-6.61-.94-2.02-1.58-4.19-2.52-6.2-1.7-3.65-2.68-8.5-1.54-12.43.42-1.43,1.07-2.44,1.86-3.69,1.38-2.18,1.21-4.28,1.7-6.7.38-1.87.53-3.9,1.6-5.52,1.02-1.55,2.79-2.2,4.39-2.89.8-.34,1.56-.75,2.34-1.13.85-.42,1.21-.29,2.14,0,1.71.54,3.12,1.32,4.51,2.44,2.88,2.32,4.37,5.31,5.52,8.77.45,1.36,1.14,2.49,1.87,3.71,1.06,1.74,1.04,4.02.5,5.96-.59,2.14-1.48,4.11-2.67,5.99-1.17,1.86-2.44,3.77-3.01,5.9-.61,2.26-1.12,4.24-2.81,5.95-1.22,1.23-2.94,2.81-4.59,3.3-.84.25-1.78.5-2.52.98-.52.34-1.69,1.24-1.82,2.16Z"/>
            <path class="cls-3" d="M53.55,45.1c2.06.19,3.98.39,5.95.87,1.19.29,2.19.86,3.32,1.3,2.17.84,4.32,1.64,6.45,2.63,1.67.78,2.77,2.26,4.41,3.11.96.49,2.19,1.35,3.28,1.5,4.3.59,7.6-2.49,9.91-5.73.99-1.39,1.81-3.24,3.46-3.94,1.66-.7,3.68-.46,4.46-2.46,1.56-3.97.68-7.92.27-12.02-.34-3.38-.92-6.5-3.9-8.52-2.58-1.75-5.49-2.41-8.54-1.77-.77.16-1.55.31-2.32.49-1,.24-1.8.79-2.75,1.13-1.17.41-2.4.6-3.56,1.1-1.48.63-2.29,1.8-3.34,2.94-2.01,2.16-3.67,4.61-5.67,6.77-.81.87-1.67,1.73-2.58,2.5-.92.78-1.98,1.04-2.97,1.66-1.79,1.12-2.81,3.28-4.05,4.94-.44.59-.8,1.24-1.26,1.82-.31.4-.79.76-.59,1.67Z"/>
            <path class="cls-3" d="M53.22,45.27c1.54,1.22,3.16,2.89,4.97,3.81.82.42,1.57.89,2.31,1.44,1.31.97,2.83,1.95,3.75,3.32.41.62.68,1.32,1.07,1.96.46.75,1.07,1.44,1.46,2.22.8,1.63.92,3.63,1.36,5.36.15.58.4,1.11.47,1.71.09.83-.11,1.59.15,2.39.44,1.31,1.73,1.85,2.79,2.6,1.01.71,1.91,1.24,3.05,1.73,1.32.57,2.28,1.52,3.46,2.28,2.8,1.8,6.35-.29,7.77-2.89.78-1.42.86-2.71,1.16-4.25.14-.73.43-1.69,1.1-2.11.31-.2.83-.22,1.18-.38.47-.22.91-.54,1.36-.8.39-.22,1-.69,1.45-.81.44-.12.79.16,1.13.1.57-.1.79-1.07,1.01-1.54.44-.95.86-1.87.61-2.93-.31-1.31-1.31-2.87-2.01-4.02-.56-.93-1.14-1.83-2.02-2.5-.53-.41-1.09-.61-1.69-.91-.85-.42-1.51-1.04-2.29-1.57-1.36-.92-2.93-1.46-4.42-2.14-1.76-.81-3.51-1.78-5.35-2.4-1.78-.6-3.68-.93-5.49-1.44-1.59-.45-3.19-.59-4.85-.55-1.1.03-2.13.39-3.2.51-.99.11-1.99.19-2.99.33-1.43.19-2.74.52-4.11.9-.57.16-1.07.35-1.65.46-.53.1-1.16.13-1.56.12Z"/>
          </g>
          <g>
            <path class="cls-1" d="M.6,85.27c-.22,0-.43-.12-.53-.32-.15-.29-.04-.66.26-.81,1.67-.87,3.51-2,5.28-3.11,1.51-.94,3.08-1.91,4.5-2.68.88-.48,1.81-.85,2.71-1.21.86-.34,1.67-.66,2.43-1.07,2.47-1.31,5.26-2.29,7.95-3.25.99-.35,1.98-.7,2.94-1.06,4.3-1.62,8.37-4.05,11.76-7.03,1.34-1.18,2.64-2.47,3.9-3.73.79-.79,1.59-1.58,2.4-2.35,1.12-1.06,2.55-2.49,3.63-4.1.25-.38.5-.76.75-1.15.51-.79,1.04-1.62,1.64-2.39.99-1.29,1.48-1.69,1.8-1.95.23-.19.31-.25.51-.64.15-.29.51-.41.81-.25.29.15.41.52.25.81-.3.57-.5.76-.81,1.01-.28.23-.7.57-1.61,1.75-.56.73-1.08,1.53-1.58,2.31-.25.39-.5.78-.76,1.17-1.15,1.71-2.63,3.19-3.8,4.3-.8.76-1.59,1.55-2.38,2.33-1.27,1.27-2.58,2.57-3.96,3.78-3.5,3.07-7.7,5.58-12.13,7.25-.97.36-1.96.72-2.96,1.07-2.66.94-5.4,1.91-7.79,3.18-.82.43-1.7.78-2.55,1.12-.87.35-1.77.7-2.59,1.14-1.39.76-2.87,1.68-4.44,2.65-1.79,1.11-3.65,2.27-5.36,3.15-.09.05-.18.07-.27.07Z"/>
            <path class="cls-1" d="M51.64,50.26c.39-1.32.66-1.99.65-3.17,0-.57-.15-1.07-.22-1.62-.12-.87-.25-1.99.14-2.83.15-.31.36-.62.69-.65.43-.05.57.29.82.6.49.61.9,1.26,1.42,1.84.6.67,1.06.72,1.95.72.41,0,1.03-.11,1.42.02.43.14.79.61,1.19.83.58.32,1.58.58,1.42,1.44-.08.44-.45.55-.87.7-.71.24-1.31.64-2.03.89-1.36.47-2.84.49-4.23.81-.76.18-1.93.21-2.34.44Z"/>
          </g>
        </g>
      </g>
    </g>
  </g>
</svg>